<svg width="16" height="16" viewBox="0 0 16 16" fill="none" xmlns="http://www.w3.org/2000/svg">
<path d="M15.6032 12.2012L13.9022 11.067L12.39 10.0591C12.0981 9.86489 11.7059 9.92855 11.4905 10.2051L10.5548 11.408C10.3538 11.6691 9.9922 11.7441 9.70396 11.5845C9.06904 11.2313 8.31823 10.8988 6.6616 9.24001C5.00498 7.58126 4.67032 6.83258 4.31714 6.19766C4.15755 5.90942 4.23256 5.54784 4.49359 5.34687L5.69652 4.41115C5.97304 4.19574 6.03672 3.80353 5.84255 3.51167L4.86557 2.04604L3.70047 0.298371C3.50216 0.000899688 3.10519 -0.0884077 2.79861 0.0954516L1.45493 0.901555C1.09179 1.1155 0.824861 1.46098 0.709421 1.86637C0.341972 3.20607 0.267889 6.1614 5.00417 10.8977C9.74046 15.634 12.6955 15.5596 14.0352 15.1922C14.4406 15.0768 14.7861 14.8098 15 14.4467L15.8061 13.103C15.99 12.7964 15.9007 12.3995 15.6032 12.2012Z" fill="white"/>
<path d="M9.28748 2.38091C11.7702 2.38366 13.7821 4.3956 13.7849 6.87831C13.7849 7.02441 13.9033 7.14288 14.0495 7.14288C14.1956 7.14288 14.314 7.02444 14.314 6.87831C14.311 4.10352 12.0623 1.85486 9.28751 1.85181C9.14142 1.85181 9.02295 1.97024 9.02295 2.11637C9.02292 2.26244 9.14136 2.38091 9.28748 2.38091Z" fill="white"/>
<path d="M9.28751 3.96834C10.8939 3.97023 12.1957 5.27202 12.1976 6.87841C12.1976 7.02451 12.316 7.14298 12.4622 7.14298C12.6082 7.14298 12.7267 7.02454 12.7267 6.87841C12.7245 4.97991 11.186 3.4414 9.28751 3.43921C9.14142 3.43921 9.02295 3.55765 9.02295 3.70377C9.02295 3.8499 9.14139 3.96834 9.28751 3.96834Z" fill="white"/>
<path d="M9.28748 5.55547C10.0177 5.55634 10.6094 6.14804 10.6103 6.87824C10.6103 7.02433 10.7287 7.1428 10.8748 7.1428C11.0209 7.1428 11.1394 7.02436 11.1394 6.87824C11.1382 5.85597 10.3098 5.02754 9.28751 5.02637C9.14142 5.02637 9.02295 5.1448 9.02295 5.29093C9.02292 5.43703 9.14136 5.55547 9.28748 5.55547Z" fill="white"/>
</svg>
