<svg width="20" height="14" viewBox="0 0 20 14" fill="none" xmlns="http://www.w3.org/2000/svg">
<path d="M19.1663 1.37497C19.1663 1.35306 19.1813 1.33172 19.1803 1.31006L13.3271 6.94992L19.1733 12.4096C19.1768 12.3706 19.1663 12.3313 19.1663 12.2915V1.37497V1.37497Z" fill="white"/>
<path d="M12.4336 7.81787L10.0442 10.1168C9.92326 10.2331 9.7671 10.2915 9.61085 10.2915C9.45786 10.2915 9.30486 10.2356 9.18478 10.1237L6.80184 7.9032L0.91748 13.5751C1.06056 13.6265 1.21414 13.6664 1.37497 13.6664H17.8468C18.0856 13.6664 18.3096 13.5936 18.5044 13.4852L12.4336 7.81787Z" fill="white"/>
<path d="M9.60394 8.80579L18.5367 0.200912C18.3345 0.0806647 18.0991 0 17.8467 0H1.37489C1.04631 0 0.745236 0.12758 0.510742 0.322159L9.60394 8.80579Z" fill="white"/>
<path d="M0 1.58447V12.2912C0 12.4141 0.0282493 12.5326 0.0589152 12.6459L5.87027 7.04967L0 1.58447Z" fill="white"/>
</svg>
