<svg width="18" height="16" viewBox="0 0 18 16" fill="none" xmlns="http://www.w3.org/2000/svg">
<path d="M16.7904 6.81716L9.54732 0.217291C9.2294 -0.072441 8.74998 -0.0724094 8.43219 0.21726L1.18907 6.81719C0.934397 7.04926 0.850274 7.40681 0.974693 7.72807C1.09914 8.04934 1.40215 8.2569 1.74668 8.2569H2.90353V14.8695C2.90353 15.1317 3.11611 15.3442 3.37828 15.3442H7.3484C7.61057 15.3442 7.82315 15.1317 7.82315 14.8695V10.8545H10.1565V14.8695C10.1565 15.1317 10.369 15.3443 10.6312 15.3443H14.6011C14.8633 15.3443 15.0759 15.1317 15.0759 14.8695V8.2569H16.233C16.5775 8.2569 16.8805 8.0493 17.0049 7.72807C17.1292 7.40678 17.0451 7.04926 16.7904 6.81716Z" fill="white"/>
</svg>
