<svg width="24" height="24" viewBox="0 0 24 24" fill="none" xmlns="http://www.w3.org/2000/svg">
<path d="M16.8793 11.9998C16.8793 14.6945 14.6949 16.8789 12.0002 16.8789C9.30549 16.8789 7.12109 14.6945 7.12109 11.9998C7.12109 9.3051 9.30549 7.1207 12.0002 7.1207C14.6949 7.1207 16.8793 9.3051 16.8793 11.9998Z" fill="white"/>
<path d="M23.4107 3.36723C23.1762 2.73167 22.802 2.15639 22.3158 1.6842C21.8436 1.198 21.2687 0.823817 20.6328 0.589274C20.117 0.38896 19.3422 0.150528 17.9151 0.0855712C16.3713 0.0151695 15.9085 0 12.0002 0C8.09153 0 7.62867 0.0147805 6.08528 0.0851822C4.65819 0.150528 3.88299 0.38896 3.36762 0.589274C2.73167 0.823817 2.15639 1.198 1.68459 1.6842C1.19839 2.15639 0.824206 2.73128 0.589274 3.36723C0.38896 3.88299 0.150528 4.65819 0.0855712 6.08528C0.0151695 7.62867 0 8.09153 0 12.0002C0 15.9085 0.0151695 16.3713 0.0855712 17.9151C0.150528 19.3422 0.38896 20.117 0.589274 20.6328C0.824206 21.2687 1.198 21.8436 1.6842 22.3158C2.15639 22.802 2.73128 23.1762 3.36723 23.4107C3.88299 23.6114 4.65819 23.8499 6.08528 23.9148C7.62867 23.9852 8.09115 24 11.9998 24C15.9089 24 16.3717 23.9852 17.9147 23.9148C19.3418 23.8499 20.117 23.6114 20.6328 23.4107C21.9093 22.9183 22.9183 21.9093 23.4107 20.6328C23.611 20.117 23.8495 19.3422 23.9148 17.9151C23.9852 16.3713 24 15.9085 24 12.0002C24 8.09153 23.9852 7.62867 23.9148 6.08528C23.8499 4.65819 23.6114 3.88299 23.4107 3.36723V3.36723ZM12.0002 19.5161C7.84882 19.5161 4.48354 16.1512 4.48354 11.9998C4.48354 7.84843 7.84882 4.48354 12.0002 4.48354C16.1512 4.48354 19.5165 7.84843 19.5165 11.9998C19.5165 16.1512 16.1512 19.5161 12.0002 19.5161ZM19.8136 5.94292C18.8436 5.94292 18.0571 5.15644 18.0571 4.18638C18.0571 3.21631 18.8436 2.42983 19.8136 2.42983C20.7837 2.42983 21.5702 3.21631 21.5702 4.18638C21.5698 5.15644 20.7837 5.94292 19.8136 5.94292Z" fill="white"/>
</svg>
