<svg width="16" height="16" viewBox="0 0 16 16" fill="none" xmlns="http://www.w3.org/2000/svg">
<path d="M15.5901 5.04613C15.5901 4.36489 15.4617 3.7047 15.2105 3.08087C14.9666 2.48001 14.6182 1.94038 14.1744 1.47729C13.7307 1.0142 13.2136 0.650619 12.6378 0.396112C12.0418 0.132037 11.4073 0 10.7545 0C10.1017 0 9.46909 0.133951 8.87129 0.396112C8.29552 0.650619 7.77838 1.0142 7.33462 1.47729C6.89086 1.94038 6.54245 2.48001 6.29856 3.08087C6.04551 3.70279 5.91898 4.36489 5.91898 5.04613C5.91898 5.89767 6.12436 6.732 6.51494 7.47447L0.725846 13.5099C0.591983 13.6496 0.549807 13.862 0.632325 14.0629C0.648829 14.105 0.676335 14.1433 0.707509 14.1758L2.00396 15.5287C2.03513 15.5613 2.07181 15.5881 2.11215 15.6072C2.30469 15.6933 2.50823 15.6512 2.6421 15.5096L3.44344 14.6734L4.59686 15.877C4.62803 15.9095 4.66471 15.9363 4.70503 15.9555C4.89757 16.0416 5.10113 15.9995 5.23498 15.8579L6.51309 14.5241C6.54426 14.4916 6.56994 14.4533 6.58827 14.4112C6.67079 14.2103 6.63045 13.9979 6.49475 13.8582L5.35967 12.6737L8.42567 9.47225C9.13533 9.87985 9.93667 10.0942 10.7527 10.0942C11.4055 10.0942 12.0381 9.96022 12.6359 9.69806C13.2117 9.44355 13.7288 9.07997 14.1726 8.61688C14.6163 8.15381 14.9647 7.61418 15.2087 7.0133C15.4617 6.38755 15.5901 5.72736 15.5901 5.04613ZM12.4489 6.8162C11.996 7.28885 11.3927 7.5491 10.7527 7.5491C10.1127 7.5491 9.50943 7.28885 9.05651 6.8162C8.60358 6.34354 8.35236 5.71397 8.35236 5.04613C8.35236 4.37637 8.60175 3.74872 9.05468 3.27606C9.50761 2.8034 10.1109 2.54316 10.7509 2.54316C11.3909 2.54316 11.9942 2.8034 12.4471 3.27606C12.9 3.74872 13.1494 4.37829 13.1494 5.04613C13.1531 5.71397 12.9037 6.34354 12.4489 6.8162Z" fill="white"/>
</svg>
