<svg id="Capa_1" enable-background="new 0 0 512.305 512.305" height="512" viewBox="0 0 512.305 512.305" width="512" xmlns="http://www.w3.org/2000/svg"><g><path d="m296.98 314.293c85.964 0 155.901-70.496 155.901-157.146s-69.937-157.147-155.901-157.147-155.901 70.496-155.901 157.146 69.937 157.147 155.901 157.147zm-50.096-108.109c4.535-6.932 13.832-8.878 20.764-4.341 10.102 6.607 13.912 7.216 27.241 7.123 13.01-.086 20.559-9.783 22.067-18.757.734-4.365 1.015-15.024-12.195-19.694-15.495-5.478-31.353-11.739-42.385-20.392s-16.084-23.591-13.183-38.982c3.145-16.685 14.784-29.967 30.376-34.663.141-.042.279-.076.42-.118v-5.686c0-8.284 6.716-15 15-15s15 6.716 15 15v4.741c10.188 2.432 17.303 7.093 20.192 9.252 6.635 4.961 7.993 14.36 3.033 20.996s-14.359 7.994-20.995 3.032c-3.074-2.298-11.569-7.238-23.998-3.493-7.261 2.188-9.144 9.352-9.548 11.495-.793 4.211.097 8.158 2.217 9.82 7.647 5.998 21.413 11.309 33.869 15.712 22.969 8.119 35.741 29.399 31.782 52.953-1.943 11.557-7.757 22.279-16.372 30.194-5.868 5.392-12.698 9.236-20.18 11.431v6.811c0 8.284-6.716 15-15 15s-15-6.716-15-15v-5.315c-9.699-1.176-17.841-4.209-28.765-11.355-6.931-4.535-8.875-13.832-4.34-20.764z"/><path d="m56.855 364.694h-34.202c-8.284 0-15 6.716-15 15v117.59c0 8.284 6.716 15 15 15h34.203v-147.59z"/><path d="m500.253 363.647c-28.114-28.115-73.861-28.116-101.974 0l-44.934 44.933-18.417 18.417c-7.443 7.443-17.539 11.625-28.065 11.625h-89.554c-8.088 0-15.048-6.216-15.429-14.295-.406-8.626 6.467-15.747 15.004-15.747h91.026c18.302 0 34.176-13.03 37.322-31.059.723-4.14 1.1-8.397 1.1-12.741.001-8.299-6.723-15.033-15.021-15.033h-49.877c-16.3 0-31.953-7.394-48.526-15.224-17.383-8.211-35.357-16.702-56.374-18.1-18.382-1.225-36.806.788-54.763 5.973-19.227 5.552-33.048 22.634-34.724 42.356-.064-.005-.129-.006-.194-.01v147.491l258.427.071c17.768 0 34.474-6.92 47.04-19.485l107.93-107.93c5.869-5.864 5.869-15.376.003-21.242z"/></g></svg>