<svg width="19" height="35" viewBox="0 0 19 35" fill="none" xmlns="http://www.w3.org/2000/svg">
<path d="M9.67509 23.8414C9.57509 23.9414 9.37506 23.9414 9.27506 23.8414L1.8751 16.4414C0.175098 14.7414 0.175098 11.9414 1.8751 10.2414C1.9751 10.1414 2.17506 10.1414 2.27506 10.2414L9.67509 17.6414C11.3751 19.3414 11.3751 22.1414 9.67509 23.8414Z" fill="#95CA06"/>
<path d="M10.475 34.8414C10.375 34.9414 10.175 34.9414 10.075 34.8414L1.275 26.0414C-0.425 24.3414 -0.425 21.5414 1.275 19.8414C1.375 19.7414 1.57502 19.7414 1.67502 19.8414L10.475 28.6414C12.275 30.3414 12.275 33.1414 10.475 34.8414Z" fill="#003466"/>
<path d="M13.3751 29.2415C13.4751 29.3415 13.675 29.3414 13.775 29.1414L17.575 23.7415C18.975 21.7415 18.4751 19.0414 16.4751 17.6414C16.3751 17.5414 16.175 17.5415 16.075 17.7415L12.275 23.1414C10.875 25.0414 11.3751 27.8415 13.3751 29.2415Z" fill="#003466"/>
<path d="M5.57503 11.7414C5.67503 11.8414 5.87505 11.7414 5.97505 11.6414L9.67507 5.84141C10.8751 3.84141 10.3751 1.24143 8.37508 0.0414264C8.27508 -0.0585736 8.07505 0.041402 7.97505 0.141402L4.27504 5.94139C2.97504 7.84139 3.57503 10.4414 5.57503 11.7414Z" fill="#95CA06"/>
<path d="M9.47506 15.9414C9.57506 16.0414 9.77508 16.0414 9.87508 15.8414L11.9751 12.8414C13.2751 10.9414 12.8751 8.3414 10.9751 6.9414C10.8751 6.8414 10.675 6.84144 10.575 7.04144L8.47506 10.0414C7.17506 11.9414 7.57506 14.6414 9.47506 15.9414Z" fill="#95CA06"/>
</svg>
