<?xml version="1.0" encoding="utf-8"?>
<!-- Generator: Adobe Illustrator 23.1.0, SVG Export Plug-In . SVG Version: 6.00 Build 0)  -->
<svg version="1.1" id="Layer_1" xmlns="http://www.w3.org/2000/svg" xmlns:xlink="http://www.w3.org/1999/xlink" x="0px" y="0px"
	 viewBox="0 0 512 512" style="enable-background:new 0 0 512 512;" xml:space="preserve">
<style type="text/css">
	.st0{fill:#FFFFFF;}
</style>
<g>
	<path d="M304,160c30.9,0,56-25.1,56-56c0-4.4-3.6-8-8-8h-48c-15.1,0-29.5,6.1-40,16.9V80h40c30.9,0,56-25.1,56-56c0-4.4-3.6-8-8-8
		h-48c-19.7,0-37.9,10.4-48,27.3C245.9,26.4,227.7,16,208,16h-48c-4.4,0-8,3.6-8,8c0,30.9,25.1,56,56,56h40v32.9
		C237.5,102.1,223.1,96,208,96h-48c-4.4,0-8,3.6-8,8c0,30.9,25.1,56,56,56h40v16.4c-48.4,4.4-84.1,47.2-79.6,95.6
		c4.4,48.4,47.2,84.1,95.6,79.6s84.1-47.2,79.6-95.6c-3.9-42.3-37.4-75.8-79.6-79.6V160H304z"/>
	<path d="M304,112h39.2c-3.8,18.6-20.2,32-39.2,32h-39.2C268.6,125.4,285,112,304,112z"/>
	<path d="M304,32h39.2C339.4,50.6,323,64,304,64h-39.2C268.6,45.4,285,32,304,32z"/>
	<path d="M208,64c-19,0-35.4-13.4-39.2-32H208c19,0,35.4,13.4,39.2,32H208z"/>
	<path d="M208,144c-19,0-35.4-13.4-39.2-32H208c19,0,35.4,13.4,39.2,32H208z"/>
	<path d="M328,264c0,39.8-32.2,72-72,72s-72-32.2-72-72s32.2-72,72-72C295.7,192.1,327.9,224.3,328,264z"/>
	<path d="M32,16h16v16H32V16z"/>
	<path d="M32,48h16v16H32V48z"/>
	<path d="M16,32h16v16H16V32z"/>
	<path d="M48,32h16v16H48V32z"/>
	<path d="M80,112h16v16H80V112z"/>
	<path d="M80,144h16v16H80V144z"/>
	<path d="M64,128h16v16H64V128z"/>
	<path d="M96,128h16v16H96V128z"/>
	<path d="M32,208h16v16H32V208z"/>
	<path d="M32,240h16v16H32V240z"/>
	<path d="M16,224h16v16H16V224z"/>
	<path d="M48,224h16v16H48V224z"/>
	<path d="M464,16h16v16h-16V16z"/>
	<path d="M464,48h16v16h-16V48z"/>
	<path d="M480,32h16v16h-16V32z"/>
	<path d="M448,32h16v16h-16V32z"/>
	<path d="M416,112h16v16h-16V112z"/>
	<path d="M416,144h16v16h-16V144z"/>
	<path d="M432,128h16v16h-16V128z"/>
	<path d="M400,128h16v16h-16V128z"/>
	<path d="M464,208h16v16h-16V208z"/>
	<path d="M464,240h16v16h-16V240z"/>
	<path d="M480,224h16v16h-16V224z"/>
	<path d="M448,224h16v16h-16V224z"/>
	<path d="M494.8,336.3c-11.1-19.1-35.5-25.7-54.6-14.7L340,379.4c-7.5-7.3-17.5-11.4-28-11.4h-92.7l-23.5-23.6
		C185.2,333.9,171,328,156.1,328H80v-16c0-4.4-3.6-8-8-8H24c-4.4,0-8,3.6-8,8v176c0,4.4,3.6,8,8,8h48c4.4,0,8-3.6,8-8v-21.4
		l97.5,27.8c3.6,1,7.3,1.5,11,1.5h99c7,0,13.9-1.8,20-5.4L480.2,391C499.3,379.9,505.8,355.5,494.8,336.3z"/>
	<rect x="32" y="320" width="32" height="160"/>
	<path d="M483.4,362.5c-1.6,6.2-5.7,11.4-11.2,14.6l-172.7,99.8c-3.7,2.1-7.8,3.2-12,3.2h-99c-2.2,0-4.4-0.3-6.6-1L80,450V344h76.1
		c10.6,0,20.8,4.2,28.3,11.8l25.9,25.9c1.5,1.5,3.6,2.3,5.7,2.3h96c6.3,0,12.3,2.4,16.8,6.9c1,1.1,2,2.2,2.9,3.4
		c2.8,4,4.3,8.8,4.3,13.8c0,13.2-10.8,24-24,24h-96v16h96c22,0.1,39.9-17.6,40-39.5c0-5.4-1-10.7-3.1-15.7l99.3-57.3
		c11.5-6.6,26.2-2.7,32.8,8.8C484.1,349.8,485,356.3,483.4,362.5L483.4,362.5z"/>
	<g>
		<path class="st0" d="M248.5,208.5v9.5c-12.5,4.4-19,18.1-14.6,30.5c3.4,9.6,12.5,16,22.6,16c4.4,0,8,3.6,8,8s-3.6,8-8,8
			s-8-3.6-8-8h-16c0,10.1,6.4,19.1,16,22.5v9.5h16V295c12.5-4.4,19-18.1,14.6-30.5c-3.4-9.6-12.5-16-22.6-16c-4.4,0-8-3.6-8-8
			s3.6-8,8-8s8,3.6,8,8h16c0-10.1-6.4-19.1-16-22.5v-9.5H248.5z"/>
	</g>
</g>
</svg>
