<svg width="98" height="100" viewBox="0 0 98 100" fill="none" xmlns="http://www.w3.org/2000/svg">
<path d="M56.4756 61.3489C73.2555 61.3489 86.907 47.5883 86.907 30.6745C86.907 13.7608 73.2555 0 56.4756 0C39.6958 0 26.0443 13.7606 26.0443 30.6744C26.0443 47.5881 39.6958 61.3489 56.4756 61.3489ZM46.6971 40.2464C47.5823 38.8933 49.397 38.5134 50.7501 39.3991C52.722 40.6887 53.4657 40.8076 56.0675 40.7894C58.607 40.7727 60.0805 38.8798 60.3749 37.1281C60.5182 36.2761 60.573 34.1955 57.9945 33.2839C54.9699 32.2146 51.8745 30.9925 49.7211 29.3035C47.5677 27.6145 46.5815 24.6986 47.1478 21.6943C47.7617 18.4375 50.0336 15.8449 53.0771 14.9282C53.1046 14.92 53.1315 14.9134 53.1591 14.9052V13.7953C53.1591 12.1783 54.47 10.8674 56.087 10.8674C57.704 10.8674 59.015 12.1783 59.015 13.7953V14.7207C61.0036 15.1955 62.3924 16.1053 62.9564 16.5267C64.2515 17.4951 64.5166 19.3297 63.5484 20.6251C62.5802 21.9204 60.7456 22.1855 59.4502 21.2169C58.8502 20.7683 57.192 19.8041 54.7659 20.5351C53.3486 20.9622 52.981 22.3605 52.9022 22.7788C52.7474 23.6008 52.9211 24.3713 53.3349 24.6957C54.8276 25.8665 57.5147 26.9032 59.946 27.7626C64.4295 29.3474 66.9226 33.5012 66.1498 38.0988C65.7705 40.3547 64.6356 42.4476 62.954 43.9926C61.8086 45.0451 60.4754 45.7954 59.015 46.2239V47.5534C59.015 49.1704 57.704 50.4813 56.087 50.4813C54.47 50.4813 53.1591 49.1704 53.1591 47.5534V46.5159C51.2659 46.2864 49.6766 45.6943 47.5442 44.2995C46.1913 43.4142 45.8119 41.5995 46.6971 40.2464V40.2464Z" fill="#96CA06"/>
<path d="M9.60406 71.187H2.92795C1.31094 71.187 0 72.498 0 74.115V97.0681C0 98.6851 1.31094 99.9961 2.92795 99.9961H9.60425V71.187H9.60406Z" fill="#013567"/>
<path d="M96.1537 70.9827C90.666 65.4947 81.7363 65.4945 76.2487 70.9827L67.4778 79.7534L63.8829 83.3484C62.43 84.8012 60.4593 85.6175 58.4047 85.6175H40.924C39.3453 85.6175 37.9867 84.4042 37.9123 82.8272C37.8331 81.1434 39.1747 79.7534 40.8411 79.7534H58.609C62.1815 79.7534 65.2801 77.21 65.8942 73.6908C66.0353 72.8827 66.1089 72.0518 66.1089 71.2038C66.1091 69.5839 64.7966 68.2694 63.1768 68.2694H53.441C50.2593 68.2694 47.2039 66.8262 43.9689 65.2978C40.5758 63.695 37.0673 62.0376 32.9649 61.7647C29.3768 61.5256 25.7805 61.9185 22.2753 62.9306C18.5223 64.0144 15.8245 67.3487 15.4973 71.1984C15.4848 71.1974 15.4722 71.1972 15.4595 71.1964V99.9861L65.9035 100C69.3718 100 72.6327 98.6492 75.0856 96.1966L96.1531 75.129C97.2987 73.9844 97.2987 72.1277 96.1537 70.9827V70.9827Z" fill="#013567"/>
</svg>
