<svg width="100" height="100" viewBox="0 0 100 100" fill="none" xmlns="http://www.w3.org/2000/svg">
<path d="M98.0554 79.5161L86.9694 72.1247L77.1142 65.5559C75.2123 64.2905 72.6563 64.7053 71.2522 66.5076L65.154 74.3472C63.8441 76.0483 61.4876 76.5372 59.6092 75.4972C55.4713 73.1954 50.5782 71.0283 39.7819 60.218C28.9855 49.4078 26.8045 44.5286 24.5027 40.3907C23.4627 38.5122 23.9516 36.1558 25.6527 34.8461L33.4923 28.7479C35.2944 27.344 35.7094 24.788 34.444 22.8859L28.0769 13.3342L20.4838 1.94451C19.1915 0.00586335 16.6044 -0.576161 14.6064 0.622067L5.84944 5.87552C3.48287 7.26984 1.74324 9.52137 0.990908 12.1633C-1.40379 20.8943 -1.8866 40.1544 28.9802 71.0212C59.847 101.888 79.1054 101.404 87.8364 99.0088C90.4783 98.2566 92.7299 96.517 94.1242 94.1503L99.3776 85.3935C100.576 83.3953 99.994 80.8084 98.0554 79.5161Z" fill="#96CA06"/>
<path d="M56.8954 15.5166C73.0753 15.5345 86.1874 28.6465 86.2054 44.8266C86.2054 45.7787 86.9773 46.5508 87.9296 46.5508C88.8817 46.5508 89.6538 45.7789 89.6538 44.8266C89.6339 26.743 74.9792 12.0883 56.8956 12.0684C55.9434 12.0684 55.1714 12.8402 55.1714 13.7926C55.1712 14.7445 55.9431 15.5166 56.8954 15.5166Z" fill="#013567"/>
<path d="M56.8955 25.8615C67.3647 25.8738 75.8484 34.3577 75.8607 44.8267C75.8607 45.7788 76.6325 46.5509 77.5849 46.5509C78.537 46.5509 79.3091 45.779 79.3091 44.8267C79.2948 32.454 69.2684 22.4273 56.8955 22.4131C55.9433 22.4131 55.1713 23.185 55.1713 24.1373C55.1713 25.0896 55.9431 25.8615 56.8955 25.8615Z" fill="#013567"/>
<path d="M56.8954 36.206C61.6541 36.2117 65.5103 40.0679 65.516 44.8266C65.516 45.7788 66.2879 46.5508 67.2402 46.5508C68.1923 46.5508 68.9644 45.7789 68.9644 44.8266C68.9568 38.1644 63.5578 32.7654 56.8956 32.7578C55.9434 32.7578 55.1714 33.5297 55.1714 34.482C55.1712 35.4341 55.9431 36.206 56.8954 36.206Z" fill="#013567"/>
</svg>
