<svg width="83" height="100" viewBox="0 0 83 100" fill="none" xmlns="http://www.w3.org/2000/svg">
<path d="M17 18H22.5804V23.5804H17V18Z" fill="#96CA06"/>
<path d="M0 0V76.1905H35.1507C35.9478 69.0777 39.6072 62.9048 44.8958 58.6978H11.619V52.8669H46.4762V57.5022C49.8686 55.2029 53.8072 53.6455 58.0952 53.1615V0L0 0ZM11.619 12.0505H29.0476V29.5432H11.619V12.0505ZM46.4762 47.036H11.619V41.2051H46.4762V47.036ZM46.4762 29.5432H34.8571V23.7123H46.4762V29.5432ZM46.4762 17.8814H34.8571V12.0505H46.4762V17.8814Z" fill="#96CA06"/>
<path d="M63.3557 60.9375C52.5689 60.9375 43.8245 69.6819 43.8245 80.4688C43.8245 91.2556 52.5689 100 63.3557 100C74.1425 100 82.887 91.2556 82.887 80.4688C82.887 69.6819 74.1425 60.9375 63.3557 60.9375ZM60.8434 89.436L52.9524 81.545L56.8979 77.5995L60.8434 81.545L68.977 73.4143L72.9225 77.3597L60.8434 89.436Z" fill="#003466"/>
<path d="M70.9076 11.5327V50.8674C72.8313 51.1129 74.7097 51.5039 76.4879 52.1378V11.5327H70.9076Z" fill="#003466"/>
<path d="M11.1608 88.021V93.6014H35.0248C34.3909 91.8231 33.9999 89.9447 33.7543 88.021H11.1608Z" fill="#003466"/>
</svg>
