<svg width="88" height="63" viewBox="0 0 88 63" fill="none" xmlns="http://www.w3.org/2000/svg">
<path d="M8.90002 42.0415C8.80002 42.6415 8.40004 42.8415 8.10004 42.8415C8.00004 42.8415 7.90005 42.8415 7.80005 42.7415C7.40005 42.5415 7.00001 42.5415 6.70001 42.5415C6.20001 42.5415 5.8 42.6415 5.5 42.9415C4.9 43.4415 4.80005 44.2415 4.80005 44.8415C4.80005 47.5415 4.80005 47.6415 4.80005 47.6415C4.80005 47.9415 5.00005 48.1415 5.30005 48.1415H7.90002C8.40002 48.1415 8.70001 48.4415 8.70001 49.0415V49.3415C8.70001 49.8415 8.40002 50.2415 7.90002 50.2415H5.30005C5.00005 50.2415 4.80005 50.4415 4.80005 50.7415C4.80005 50.7415 4.80005 50.7415 4.80005 51.5415C4.80005 52.6415 4.80005 55.1415 4.80005 61.1415C4.80005 61.7415 4.40002 62.0415 3.90002 62.0415H3C2.4 62.0415 2.10004 61.7415 2.10004 61.1415V50.7415C2.10004 50.4415 1.90004 50.2415 1.60004 50.2415H0.800049C0.300049 50.2415 0 49.8415 0 49.3415V49.0415C0 48.5415 0.300049 48.1415 0.800049 48.1415H1.60004C1.90004 48.1415 2.10004 47.9415 2.10004 47.6415V45.3415C2.10004 43.4415 2.70002 42.2415 3.90002 41.3415C4.70002 40.8415 5.60004 40.5415 6.60004 40.5415C7.10004 40.5415 7.70001 40.6415 8.20001 40.8415C8.70001 41.0415 9 41.3415 9 41.8415C9 41.8415 9.00002 41.9415 8.90002 42.0415Z" fill="#003466"/>
<path d="M21.2 57.2416C21.2 60.3416 19 62.3416 15.8 62.3416C12.5 62.3416 10.4 60.4416 10.4 57.3416V49.0416C10.4 48.4416 10.8 48.1416 11.3 48.1416H12.2C12.8 48.1416 13.1 48.4416 13.1 49.0416V57.3416C13.1 58.6416 13.7 60.2416 16 60.2416C17.8 60.2416 19 59.2416 19 57.4416V49.0416C19 48.5416 19.4 48.1416 19.9 48.1416H20.3C20.9 48.1416 21.2 48.4416 21.2 49.0416V57.2416V57.2416Z" fill="#003466"/>
<path d="M35.3 60.2413C35.3 61.4413 34.6 62.2413 33.6 62.2413C32.6 62.2413 32 61.4413 31.4 60.6413L26 52.3413C26 52.2413 25.9 52.2413 25.9 52.2413C25.8 52.2413 25.8 52.3413 25.8 52.4413V61.1413C25.8 61.6413 25.5 62.0413 24.9 62.0413H24.4C23.8 62.0413 23.5 61.7413 23.5 61.1413V49.8413C23.5 48.6413 24.2 47.8413 25.2 47.8413C26.2 47.8413 26.8 48.6413 27.3 49.4413L32.7 57.7413C32.7 57.8413 32.8 57.8413 32.8 57.8413C32.9 57.8413 32.9 57.7413 32.9 57.6413V48.9413C32.9 48.3413 33.2 48.0413 33.8 48.0413H34.2C34.8 48.0413 35.1 48.3413 35.1 48.9413V60.2413H35.3Z" fill="#003466"/>
<path d="M49.3001 60.1413C49.3001 61.3413 48.7001 61.9413 47.5001 61.9413H44.5001C39.9001 61.9413 37.1001 59.3413 37.1001 55.0413C37.1001 50.8413 40.1001 48.1413 44.6001 48.1413H46.0001C46.3001 48.1413 46.5001 47.9413 46.5001 47.6413V41.7413C46.5001 41.1413 46.9001 40.8413 47.4001 40.8413H48.3001C48.9001 40.8413 49.2001 41.1413 49.2001 41.7413V60.1413H49.3001ZM46.6001 50.6413C46.6001 50.3413 46.4001 50.1413 46.1001 50.1413H44.8001C41.9001 50.1413 40.1001 52.0413 40.1001 55.0413C40.1001 58.1413 41.8001 59.9413 44.8001 59.9413H46.1001C46.4001 59.9413 46.6001 59.7413 46.6001 59.4413V50.6413Z" fill="#003466"/>
<path d="M54.3001 61.0417C54.3001 61.6417 54.0001 61.9417 53.4001 61.9417H52.5001C52.0001 61.9417 51.6001 61.6417 51.6001 61.0417V41.6417C51.6001 41.0417 52.0001 40.7417 52.5001 40.7417H53.4001C54.0001 40.7417 54.3001 41.0417 54.3001 41.6417V61.0417Z" fill="#003466"/>
<path d="M58.3001 46.2413C57.4001 46.2413 56.6001 45.4413 56.6001 44.5413C56.6001 43.5413 57.4001 42.8413 58.3001 42.8413C59.3001 42.8413 60.0001 43.6413 60.0001 44.5413C60.0001 45.4413 59.3001 46.2413 58.3001 46.2413ZM59.6001 61.0413C59.6001 61.6413 59.2001 61.9413 58.7001 61.9413H57.9001C57.3001 61.9413 57.0001 61.6413 57.0001 61.0413V49.0413C57.0001 48.5413 57.3001 48.1413 57.9001 48.1413H58.7001C59.3001 48.1413 59.6001 48.5413 59.6001 49.0413V61.0413Z" fill="#003466"/>
<path d="M74 60.2413C74 61.4413 73.3 62.2413 72.3 62.2413C71.3 62.2413 70.7 61.4413 70.1 60.6413L64.7 52.3413C64.7 52.2413 64.6 52.2413 64.6 52.2413C64.5 52.2413 64.5 52.3413 64.5 52.4413V61.1413C64.5 61.6413 64.2 62.0413 63.6 62.0413H63.2C62.6 62.0413 62.3 61.7413 62.3 61.1413V49.8413C62.3 48.6413 63 47.8413 64 47.8413C65 47.8413 65.6 48.6413 66.1 49.4413L71.5 57.7413C71.5 57.8413 71.6 57.8413 71.6 57.8413C71.7 57.8413 71.7 57.7413 71.7 57.6413V48.9413C71.7 48.3413 72 48.0413 72.6 48.0413H73C73.6 48.0413 73.9 48.3413 73.9 48.9413V60.2413H74Z" fill="#003466"/>
<path d="M87.3 61.5416C87.2 61.8416 86.9 61.9416 86.5 61.9416H85.1C84.7 61.9416 84.3 61.8416 83.9 61.3416C79.5 56.2416 79.3 55.9416 79.3 55.9416C79.2 55.8416 79.2 55.8416 79.1 55.8416C79 55.8416 79 55.9416 79 56.0416V60.9416C79 61.5416 78.7 61.8416 78.1 61.8416H77.2C76.7 61.8416 76.3 61.5416 76.3 60.9416V41.5416C76.3 40.9416 76.7 40.6416 77.2 40.6416H78.1C78.7 40.6416 79 40.9416 79 41.5416V53.8416C79 53.9416 79.1 54.0416 79.2 54.0416C79.2 54.0416 79.3 54.0416 79.3 53.9416L84.3 48.5416C84.6 48.2416 84.9 48.1416 85.3 48.1416H86.2C86.6 48.1416 86.9 48.4416 86.9 48.7416C86.9 48.9416 86.8 49.1416 86.6 49.3416L81.8 54.4416C81.7 54.5416 81.7 54.6416 81.7 54.7416C81.7 54.8416 81.8 54.9416 81.8 54.9416L86.9 60.7416C87.1 60.9416 87.2 61.1416 87.2 61.3416C87.3 61.4416 87.3 61.4416 87.3 61.5416Z" fill="#003466"/>
<path d="M43.6751 23.8415C43.5751 23.9415 43.3751 23.9415 43.2751 23.8415L35.8751 16.4415C34.1751 14.7415 34.1751 11.9415 35.8751 10.2415C35.9751 10.1415 36.1751 10.1415 36.2751 10.2415L43.6751 17.6415C45.3751 19.3415 45.3751 22.1415 43.6751 23.8415Z" fill="#95CA06"/>
<path d="M44.475 34.8416C44.375 34.9416 44.175 34.9416 44.075 34.8416L35.275 26.0416C33.575 24.3416 33.575 21.5416 35.275 19.8416C35.375 19.7416 35.575 19.7416 35.675 19.8416L44.475 28.6416C46.275 30.3416 46.275 33.1416 44.475 34.8416Z" fill="#003466"/>
<path d="M47.3751 29.2414C47.4751 29.3414 47.675 29.3414 47.775 29.1414L51.575 23.7414C52.975 21.7414 52.4751 19.0414 50.4751 17.6414C50.3751 17.5414 50.175 17.5414 50.075 17.7414L46.275 23.1414C44.875 25.0414 45.3751 27.8414 47.3751 29.2414Z" fill="#003466"/>
<path d="M39.575 11.7414C39.675 11.8414 39.8751 11.7414 39.9751 11.6414L43.6751 5.84141C44.8751 3.84141 44.3751 1.24143 42.3751 0.0414264C42.2751 -0.0585736 42.0751 0.041402 41.9751 0.141402L38.275 5.94139C36.975 7.84139 37.575 10.4414 39.575 11.7414Z" fill="#95CA06"/>
<path d="M43.4751 15.9416C43.5751 16.0416 43.7751 16.0417 43.8751 15.8417L45.9751 12.8417C47.2751 10.9417 46.8751 8.34165 44.9751 6.94165C44.8751 6.84165 44.675 6.84168 44.575 7.04168L42.4751 10.0417C41.1751 11.9417 41.5751 14.6416 43.4751 15.9416Z" fill="#95CA06"/>
</svg>
