<svg width="113" height="80" viewBox="0 0 113 80" fill="none" xmlns="http://www.w3.org/2000/svg">
<path d="M11.421 53.9498C11.2927 54.7197 10.7794 54.9764 10.3944 54.9764C10.2661 54.9764 10.1378 54.9764 10.0094 54.8481C9.49615 54.5914 8.9828 54.5914 8.59782 54.5914C7.95619 54.5914 7.44288 54.7197 7.0579 55.1047C6.28795 55.7463 6.15968 56.7729 6.15968 57.5429C6.15968 61.0077 6.15968 61.136 6.15968 61.136C6.15968 61.521 6.41634 61.7776 6.80131 61.7776H10.1377C10.7794 61.7776 11.1643 62.1626 11.1643 62.9326V63.3175C11.1643 63.9592 10.7794 64.4725 10.1377 64.4725H6.80131C6.41634 64.4725 6.15968 64.7291 6.15968 65.1141C6.15968 65.1141 6.15968 65.1141 6.15968 66.1407C6.15968 67.5523 6.15968 70.7604 6.15968 78.4599C6.15968 79.2299 5.64635 79.6149 5.00472 79.6149H3.84976C3.07981 79.6149 2.69488 79.2299 2.69488 78.4599V65.1141C2.69488 64.7291 2.43823 64.4725 2.05325 64.4725H1.02667C0.385039 64.4725 0 63.9592 0 63.3175V62.9326C0 62.2909 0.385039 61.7776 1.02667 61.7776H2.05325C2.43823 61.7776 2.69488 61.521 2.69488 61.136V58.1845C2.69488 55.7463 3.46482 54.2064 5.00472 53.0515C6.03133 52.4099 7.18627 52.0249 8.46953 52.0249C9.11115 52.0249 9.88108 52.1532 10.5227 52.4099C11.1643 52.6665 11.5493 53.0515 11.5493 53.6931C11.5493 53.6931 11.5493 53.8215 11.421 53.9498Z" fill="white"/>
<path d="M27.2054 73.4555C27.2054 77.4336 24.3823 80.0001 20.2759 80.0001C16.0412 80.0001 13.3463 77.5619 13.3463 73.5838V62.9328C13.3463 62.1628 13.8596 61.7778 14.5013 61.7778H15.6562C16.4261 61.7778 16.8111 62.1628 16.8111 62.9328V73.5838C16.8111 75.252 17.581 77.3053 20.5325 77.3053C22.8424 77.3053 24.3823 76.0219 24.3823 73.7121V62.9328C24.3823 62.2912 24.8956 61.7778 25.5372 61.7778H26.0506C26.8205 61.7778 27.2054 62.1628 27.2054 62.9328V73.4555V73.4555Z" fill="white"/>
<path d="M45.299 77.305C45.299 78.8449 44.4007 79.8715 43.1174 79.8715C41.8342 79.8715 41.0642 78.8448 40.2942 77.8182L33.3646 67.1672C33.3646 67.0389 33.2363 67.0389 33.2363 67.0389C33.108 67.0389 33.108 67.1672 33.108 67.2955V78.4598C33.108 79.1015 32.723 79.6148 31.9531 79.6148H31.3115C30.5415 79.6148 30.1565 79.2298 30.1565 78.4598V63.9591C30.1565 62.4192 31.0548 61.3926 32.338 61.3926C33.6213 61.3926 34.3913 62.4192 35.0329 63.4458L41.9625 74.0968C41.9625 74.2252 42.0908 74.2251 42.0908 74.2251C42.2191 74.2251 42.2191 74.0968 42.2191 73.9685V62.8041C42.2191 62.0342 42.6041 61.6492 43.3741 61.6492H43.8873C44.6573 61.6492 45.0423 62.0342 45.0423 62.8041V77.305H45.299Z" fill="white"/>
<path d="M63.264 77.177C63.264 78.7169 62.494 79.4868 60.9541 79.4868H57.1043C51.2013 79.4868 47.6083 76.1504 47.6083 70.6324C47.6083 65.2427 51.458 61.7779 57.2327 61.7779H59.0292C59.4142 61.7779 59.6708 61.5212 59.6708 61.1363V53.5651C59.6708 52.7952 60.1842 52.4102 60.8258 52.4102H61.9807C62.7507 52.4102 63.1356 52.7952 63.1356 53.5651V77.177H63.264ZM59.7992 64.986C59.7992 64.6011 59.5425 64.3444 59.1576 64.3444H57.4894C53.7679 64.3444 51.458 66.7826 51.458 70.6324C51.458 74.6105 53.6396 76.9203 57.4894 76.9203H59.1576C59.5425 76.9203 59.7992 76.6636 59.7992 76.2787V64.986Z" fill="white"/>
<path d="M69.6803 78.3318C69.6803 79.1017 69.2952 79.4867 68.5253 79.4867H67.3703C66.7287 79.4867 66.2155 79.1017 66.2155 78.3318V53.4366C66.2155 52.6667 66.7287 52.2817 67.3703 52.2817H68.5253C69.2952 52.2817 69.6803 52.6667 69.6803 53.4366V78.3318Z" fill="white"/>
<path d="M74.8133 59.3397C73.6583 59.3397 72.6317 58.313 72.6317 57.1581C72.6317 55.8749 73.6583 54.9766 74.8133 54.9766C76.0965 54.9766 76.9947 56.0032 76.9947 57.1581C76.9947 58.313 76.0965 59.3397 74.8133 59.3397ZM76.4815 78.3318C76.4815 79.1018 75.9681 79.4867 75.3265 79.4867H74.2999C73.53 79.4867 73.145 79.1018 73.145 78.3318V62.9328C73.145 62.2911 73.53 61.7778 74.2999 61.7778H75.3265C76.0965 61.7778 76.4815 62.2911 76.4815 62.9328V78.3318Z" fill="white"/>
<path d="M94.9605 77.305C94.9605 78.8449 94.0623 79.8715 92.7791 79.8715C91.4958 79.8715 90.7259 78.8448 89.9559 77.8182L83.0263 67.1672C83.0263 67.0389 82.898 67.0389 82.898 67.0389C82.7697 67.0389 82.7696 67.1672 82.7696 67.2955V78.4598C82.7696 79.1015 82.3847 79.6148 81.6147 79.6148H81.1014C80.3315 79.6148 79.9465 79.2298 79.9465 78.4598V63.9591C79.9465 62.4192 80.8447 61.3926 82.128 61.3926C83.4113 61.3926 84.1813 62.4192 84.8229 63.4458L91.7524 74.0968C91.7524 74.2252 91.8808 74.2251 91.8808 74.2251C92.0091 74.2251 92.0091 74.0968 92.0091 73.9685V62.8041C92.0091 62.0342 92.3941 61.6492 93.164 61.6492H93.6773C94.4472 61.6492 94.8323 62.0342 94.8323 62.8041V77.305H94.9605Z" fill="white"/>
<path d="M112.028 78.9734C111.9 79.3583 111.515 79.4866 111.001 79.4866H109.205C108.691 79.4866 108.178 79.3583 107.665 78.7167C102.018 72.1721 101.762 71.7871 101.762 71.7871C101.634 71.6588 101.634 71.6588 101.505 71.6588C101.377 71.6588 101.377 71.7871 101.377 71.9155V78.2034C101.377 78.9733 100.992 79.3583 100.222 79.3583H99.067C98.4254 79.3583 97.9121 78.9733 97.9121 78.2034V53.3083C97.9121 52.5383 98.4254 52.1533 99.067 52.1533H100.222C100.992 52.1533 101.377 52.5383 101.377 53.3083V69.0923C101.377 69.2206 101.505 69.349 101.634 69.349C101.634 69.349 101.762 69.3489 101.762 69.2206L108.178 62.2911C108.563 61.9061 108.948 61.7777 109.461 61.7777H110.616C111.13 61.7777 111.515 62.1628 111.515 62.5477C111.515 62.8044 111.386 63.061 111.13 63.3177L104.97 69.8622C104.842 69.9905 104.842 70.1189 104.842 70.2473C104.842 70.3756 104.97 70.5038 104.97 70.5038L111.515 77.9468C111.771 78.2034 111.9 78.4601 111.9 78.7167C112.028 78.845 112.028 78.845 112.028 78.9734Z" fill="white"/>
<path d="M56.0454 30.5949C55.9171 30.7232 55.6604 30.7232 55.5321 30.5949L46.0361 21.0987C43.8545 18.9172 43.8545 15.3242 46.0361 13.1426C46.1644 13.0143 46.421 13.0143 46.5493 13.1426L56.0454 22.6387C58.227 24.8202 58.227 28.4133 56.0454 30.5949Z" fill="white"/>
<path d="M57.0726 44.7103C56.9443 44.8386 56.6876 44.8386 56.5593 44.7103L45.2666 33.4177C43.0851 31.2361 43.0851 27.643 45.2666 25.4615C45.395 25.3332 45.6517 25.3332 45.78 25.4615L57.0726 36.7541C59.3825 38.9356 59.3825 42.5288 57.0726 44.7103Z" fill="white"/>
<path d="M60.7946 37.5243C60.923 37.6526 61.1796 37.6526 61.3079 37.3959L66.1843 30.4664C67.9808 27.8999 67.3392 24.435 64.7727 22.6385C64.6444 22.5101 64.3877 22.5102 64.2594 22.7668L59.383 29.6964C57.5865 32.1346 58.2281 35.7277 60.7946 37.5243Z" fill="white"/>
<path d="M50.7841 15.0673C50.9124 15.1956 51.1691 15.0672 51.2974 14.9389L56.0455 7.49602C57.5854 4.92951 56.9437 1.59307 54.3772 0.0531606C54.2489 -0.0751648 53.9922 0.0531293 53.8639 0.181455L49.1158 7.62431C47.4476 10.0625 48.2176 13.399 50.7841 15.0673Z" fill="white"/>
<path d="M55.7892 20.4568C55.9175 20.5851 56.1742 20.5852 56.3025 20.3285L58.9973 16.4787C60.6656 14.0406 60.1523 10.7041 57.7141 8.90752C57.5857 8.77919 57.3291 8.77924 57.2007 9.03589L54.5059 12.8857C52.8377 15.3238 53.351 18.7886 55.7892 20.4568Z" fill="white"/>
</svg>
